<mxfile host="app.diagrams.net" modified="2023-05-23T15:51:33.973Z" agent="Mozilla/5.0 (Windows NT 10.0; Win64; x64) AppleWebKit/537.36 (KHTML, like Gecko) Chrome/113.0.0.0 Safari/537.36" etag="ARYjGh0ojlDgiboVl_V8" version="21.3.2" type="device">
  <diagram id="ou-2T_0K5Y9kjUkwNd9F" name="Page-1">
    <mxGraphModel dx="1235" dy="636" grid="0" gridSize="10" guides="1" tooltips="1" connect="1" arrows="1" fold="1" page="1" pageScale="1" pageWidth="850" pageHeight="1100" math="0" shadow="0">
      <root>
        <mxCell id="0" />
        <mxCell id="1" parent="0" />
        <mxCell id="oDLqHF4-OEQmuZAPJv7p-27" value="" style="rounded=0;whiteSpace=wrap;html=1;fillColor=#FFFFCC;" parent="1" vertex="1">
          <mxGeometry x="40" y="372" width="490" height="124" as="geometry" />
        </mxCell>
        <mxCell id="oDLqHF4-OEQmuZAPJv7p-26" value="" style="rounded=0;whiteSpace=wrap;html=1;fillColor=#FFCCCC;" parent="1" vertex="1">
          <mxGeometry x="40" y="496" width="490" height="248" as="geometry" />
        </mxCell>
        <mxCell id="oDLqHF4-OEQmuZAPJv7p-25" value="" style="rounded=0;whiteSpace=wrap;html=1;fillColor=#CCFFCC;" parent="1" vertex="1">
          <mxGeometry x="40" y="220" width="490" height="152" as="geometry" />
        </mxCell>
        <mxCell id="hmZBuemIUY8-QvYxF4QN-25" style="edgeStyle=orthogonalEdgeStyle;rounded=0;orthogonalLoop=1;jettySize=auto;html=1;exitX=0.75;exitY=0;exitDx=0;exitDy=0;entryX=0;entryY=0.5;entryDx=0;entryDy=0;strokeColor=#009900;" edge="1" parent="1" source="oDLqHF4-OEQmuZAPJv7p-7" target="9zJ--Hxn9T8rwOIMs4iG-5">
          <mxGeometry relative="1" as="geometry" />
        </mxCell>
        <mxCell id="hmZBuemIUY8-QvYxF4QN-26" style="edgeStyle=orthogonalEdgeStyle;rounded=0;orthogonalLoop=1;jettySize=auto;html=1;exitX=1;exitY=0.5;exitDx=0;exitDy=0;strokeColor=#990000;" edge="1" parent="1" source="oDLqHF4-OEQmuZAPJv7p-7" target="hmZBuemIUY8-QvYxF4QN-16">
          <mxGeometry relative="1" as="geometry" />
        </mxCell>
        <mxCell id="oDLqHF4-OEQmuZAPJv7p-7" value="Relaciona con distancia y tiempo pero no sabe cómo." style="rounded=0;whiteSpace=wrap;html=1;fillColor=#FFFF99;" parent="1" vertex="1">
          <mxGeometry x="74" y="408" width="120" height="60" as="geometry" />
        </mxCell>
        <mxCell id="hmZBuemIUY8-QvYxF4QN-19" style="edgeStyle=orthogonalEdgeStyle;rounded=0;orthogonalLoop=1;jettySize=auto;html=1;exitX=1;exitY=0.5;exitDx=0;exitDy=0;entryX=0.5;entryY=1;entryDx=0;entryDy=0;strokeColor=#009900;" edge="1" parent="1" source="oDLqHF4-OEQmuZAPJv7p-8" target="hmZBuemIUY8-QvYxF4QN-16">
          <mxGeometry relative="1" as="geometry" />
        </mxCell>
        <mxCell id="hmZBuemIUY8-QvYxF4QN-22" style="edgeStyle=orthogonalEdgeStyle;rounded=0;orthogonalLoop=1;jettySize=auto;html=1;exitX=0;exitY=0.5;exitDx=0;exitDy=0;entryX=0.5;entryY=1;entryDx=0;entryDy=0;strokeColor=#009900;" edge="1" parent="1" source="oDLqHF4-OEQmuZAPJv7p-8" target="oDLqHF4-OEQmuZAPJv7p-7">
          <mxGeometry relative="1" as="geometry" />
        </mxCell>
        <mxCell id="hmZBuemIUY8-QvYxF4QN-23" style="edgeStyle=orthogonalEdgeStyle;rounded=0;orthogonalLoop=1;jettySize=auto;html=1;exitX=0.5;exitY=0;exitDx=0;exitDy=0;entryX=0.5;entryY=1;entryDx=0;entryDy=0;strokeColor=#009900;" edge="1" parent="1" source="oDLqHF4-OEQmuZAPJv7p-8" target="9zJ--Hxn9T8rwOIMs4iG-5">
          <mxGeometry relative="1" as="geometry" />
        </mxCell>
        <mxCell id="oDLqHF4-OEQmuZAPJv7p-8" value="Relaciona con tiempo exclusivamente y no sabe cómo." style="rounded=0;whiteSpace=wrap;html=1;fillColor=#FF9999;" parent="1" vertex="1">
          <mxGeometry x="225" y="526" width="120" height="60" as="geometry" />
        </mxCell>
        <mxCell id="oDLqHF4-OEQmuZAPJv7p-28" value="2" style="rounded=0;whiteSpace=wrap;html=1;strokeColor=#330000;fillColor=#E6E6E6;" parent="1" vertex="1">
          <mxGeometry x="108" y="383" width="20" height="20" as="geometry" />
        </mxCell>
        <mxCell id="oDLqHF4-OEQmuZAPJv7p-30" value="9" style="rounded=0;whiteSpace=wrap;html=1;strokeColor=#330000;fillColor=#E6E6E6;" parent="1" vertex="1">
          <mxGeometry x="413" y="331" width="20" height="20" as="geometry" />
        </mxCell>
        <mxCell id="oDLqHF4-OEQmuZAPJv7p-35" value="&lt;span style=&quot;&quot; lang=&quot;ES&quot;&gt;&lt;b&gt;&lt;font color=&quot;#990000&quot;&gt;CAPCP&lt;/font&gt;&lt;/b&gt;&lt;/span&gt;" style="text;whiteSpace=wrap;html=1;" parent="1" vertex="1">
          <mxGeometry x="180.00000000000003" y="240.99999999999994" width="41.65" height="29.18" as="geometry" />
        </mxCell>
        <mxCell id="oDLqHF4-OEQmuZAPJv7p-37" value="&lt;span style=&quot;&quot; lang=&quot;ES&quot;&gt;&lt;b&gt;&lt;font color=&quot;#990000&quot;&gt;CASV1&lt;/font&gt;&lt;/b&gt;&lt;/span&gt;" style="text;whiteSpace=wrap;html=1;" parent="1" vertex="1">
          <mxGeometry x="473" y="378.4100000000001" width="41.65" height="29.18" as="geometry" />
        </mxCell>
        <mxCell id="oDLqHF4-OEQmuZAPJv7p-38" value="" style="shape=flexArrow;endArrow=classic;html=1;rounded=0;strokeColor=#00CC00;fontColor=#006600;fillColor=#FFFF33;" parent="1" edge="1">
          <mxGeometry width="50" height="50" relative="1" as="geometry">
            <mxPoint x="558" y="748" as="sourcePoint" />
            <mxPoint x="558" y="218" as="targetPoint" />
          </mxGeometry>
        </mxCell>
        <mxCell id="oDLqHF4-OEQmuZAPJv7p-39" value="CORRECCIÓN DE LAS RESPUESTAS" style="rounded=0;whiteSpace=wrap;html=1;rotation=0;" parent="1" vertex="1">
          <mxGeometry x="571" y="462" width="90" height="60" as="geometry" />
        </mxCell>
        <mxCell id="9zJ--Hxn9T8rwOIMs4iG-5" value="La distancia recorrida entre el tiempo tardado: v = d / t. (Definición de velocidad media)" style="rounded=0;whiteSpace=wrap;html=1;fillColor=#99FF99;" parent="1" vertex="1">
          <mxGeometry x="225" y="266" width="120" height="88" as="geometry" />
        </mxCell>
        <mxCell id="9zJ--Hxn9T8rwOIMs4iG-13" value="3" style="rounded=0;whiteSpace=wrap;html=1;strokeColor=#330000;fillColor=#E6E6E6;" parent="1" vertex="1">
          <mxGeometry x="369" y="266" width="20" height="20" as="geometry" />
        </mxCell>
        <mxCell id="9zJ--Hxn9T8rwOIMs4iG-16" value="2" style="rounded=0;whiteSpace=wrap;html=1;strokeColor=#330000;fillColor=#E6E6E6;" parent="1" vertex="1">
          <mxGeometry x="140" y="325" width="20" height="20" as="geometry" />
        </mxCell>
        <mxCell id="hmZBuemIUY8-QvYxF4QN-13" style="edgeStyle=orthogonalEdgeStyle;rounded=0;orthogonalLoop=1;jettySize=auto;html=1;exitX=0.75;exitY=0;exitDx=0;exitDy=0;entryX=1;entryY=0.25;entryDx=0;entryDy=0;strokeColor=#009900;" edge="1" parent="1" source="9zJ--Hxn9T8rwOIMs4iG-5" target="9zJ--Hxn9T8rwOIMs4iG-5">
          <mxGeometry relative="1" as="geometry">
            <Array as="points">
              <mxPoint x="315" y="255" />
              <mxPoint x="365" y="255" />
              <mxPoint x="365" y="287" />
            </Array>
          </mxGeometry>
        </mxCell>
        <mxCell id="hmZBuemIUY8-QvYxF4QN-18" style="edgeStyle=orthogonalEdgeStyle;rounded=0;orthogonalLoop=1;jettySize=auto;html=1;exitX=0.75;exitY=0;exitDx=0;exitDy=0;entryX=0.75;entryY=1;entryDx=0;entryDy=0;strokeColor=#009900;" edge="1" parent="1" source="hmZBuemIUY8-QvYxF4QN-15" target="hmZBuemIUY8-QvYxF4QN-16">
          <mxGeometry relative="1" as="geometry">
            <Array as="points">
              <mxPoint x="315" y="620" />
              <mxPoint x="469" y="620" />
            </Array>
          </mxGeometry>
        </mxCell>
        <mxCell id="hmZBuemIUY8-QvYxF4QN-15" value="Una fuerza." style="rounded=0;whiteSpace=wrap;html=1;fillColor=#FF9999;" vertex="1" parent="1">
          <mxGeometry x="225" y="650" width="120" height="60" as="geometry" />
        </mxCell>
        <mxCell id="hmZBuemIUY8-QvYxF4QN-24" style="edgeStyle=orthogonalEdgeStyle;rounded=0;orthogonalLoop=1;jettySize=auto;html=1;exitX=0.25;exitY=0;exitDx=0;exitDy=0;entryX=1;entryY=0.5;entryDx=0;entryDy=0;strokeColor=#009900;" edge="1" parent="1" source="hmZBuemIUY8-QvYxF4QN-16" target="9zJ--Hxn9T8rwOIMs4iG-5">
          <mxGeometry relative="1" as="geometry" />
        </mxCell>
        <mxCell id="hmZBuemIUY8-QvYxF4QN-16" value="Una medida de rapidez." style="rounded=0;whiteSpace=wrap;html=1;fillColor=#FFFF99;" vertex="1" parent="1">
          <mxGeometry x="379" y="408" width="120" height="60" as="geometry" />
        </mxCell>
        <mxCell id="hmZBuemIUY8-QvYxF4QN-27" style="edgeStyle=orthogonalEdgeStyle;rounded=0;orthogonalLoop=1;jettySize=auto;html=1;exitX=0.25;exitY=0;exitDx=0;exitDy=0;entryX=0;entryY=0.25;entryDx=0;entryDy=0;strokeColor=#990000;" edge="1" parent="1" source="oDLqHF4-OEQmuZAPJv7p-7" target="oDLqHF4-OEQmuZAPJv7p-7">
          <mxGeometry relative="1" as="geometry">
            <Array as="points">
              <mxPoint x="104" y="394" />
              <mxPoint x="57" y="394" />
              <mxPoint x="57" y="423" />
            </Array>
          </mxGeometry>
        </mxCell>
      </root>
    </mxGraphModel>
  </diagram>
</mxfile>
